<?xml version="1.0" encoding="utf-8"?>
<!-- Generator: Adobe Illustrator 16.0.0, SVG Export Plug-In . SVG Version: 6.00 Build 0)  -->
<!DOCTYPE svg PUBLIC "-//W3C//DTD SVG 1.1//EN" "http://www.w3.org/Graphics/SVG/1.1/DTD/svg11.dtd">
<svg version="1.1" id="Layer_1" xmlns="http://www.w3.org/2000/svg" xmlns:xlink="http://www.w3.org/1999/xlink" x="0px" y="0px"
	 width="235px" height="45px" viewBox="-0.25 0 235 45" enable-background="new -0.25 0 235 45" xml:space="preserve">
<g>
	<path fill="#FFFFFF" d="M35.689,34.252l3.556-17.718H32.23l1.044-5.123h20.46l-1.044,5.123h-6.984L42.15,34.252H35.689z"/>
	<path fill="#FFFFFF" d="M57.552,34.547c-1.261,0-2.469-0.315-3.622-0.946c-1.153-0.631-2.084-1.544-2.791-2.741
		c-0.707-1.196-1.061-2.654-1.061-4.373c0-1.478,0.25-2.839,0.751-4.079s1.191-2.317,2.072-3.231
		c0.881-0.914,1.903-1.625,3.068-2.137c1.163-0.511,2.397-0.767,3.704-0.767c1.436,0,2.671,0.277,3.704,0.832
		c1.032,0.555,1.789,1.447,2.268,2.676s0.587,2.888,0.326,4.977c-0.196,1.98-0.663,3.709-1.403,5.187
		c-0.74,1.481-1.697,2.617-2.871,3.41C60.522,34.151,59.14,34.547,57.552,34.547z M59.706,29.554c0.827,0,1.555-0.205,2.187-0.619
		c0.631-0.413,1.125-0.99,1.485-1.73c0.359-0.739,0.539-1.599,0.539-2.578c0-1.021-0.294-1.843-0.882-2.463
		c-0.587-0.62-1.414-0.93-2.48-0.93c-0.805,0-1.528,0.212-2.169,0.636c-0.642,0.424-1.142,1.005-1.501,1.746
		c-0.36,0.74-0.539,1.599-0.539,2.578c0,1.023,0.294,1.838,0.88,2.447C57.813,29.249,58.64,29.554,59.706,29.554z M62.316,34.252
		l0.621-2.968l1.175-5.842l0.783-5.841l0.62-3.035h6.201L68.19,34.252H62.316z"/>
	<path fill="#FFFFFF" d="M72.171,34.252l4.83-24.212h6.199l-4.829,24.212H72.171z"/>
	<path fill="#FFFFFF" d="M82.385,34.252l4.83-24.212h6.2l-4.829,24.212H82.385z M88.422,31.251l1.37-7.702l8.256-6.982h7.832
		l-9.854,8.517l-3.524,2.577L88.422,31.251z M95.503,34.252l-4.079-6.787l4.373-4.73l6.95,11.518H95.503z"/>
	<path fill="#FFFFFF" d="M104.444,34.252l4.569-22.841h11.552c2.588,0,4.557,0.462,5.905,1.387c1.35,0.925,2.026,2.246,2.026,3.965
		c0,1.414-0.393,2.61-1.178,3.589c-0.782,0.979-1.838,1.724-3.164,2.235c-1.328,0.511-2.818,0.768-4.472,0.768l0.914-1.567
		c2.11,0,3.785,0.457,5.026,1.372c1.239,0.912,1.858,2.196,1.858,3.849c0,1.654-0.461,3.015-1.386,4.08
		c-0.926,1.066-2.175,1.859-3.755,2.382c-1.576,0.523-3.354,0.782-5.333,0.782H104.444z M111.754,29.587h5.612
		c1.131,0,2.029-0.229,2.692-0.687c0.664-0.455,0.995-1.13,0.995-2.022c0-0.675-0.25-1.164-0.75-1.468
		c-0.501-0.303-1.143-0.457-1.927-0.457h-6.231l0.88-4.471h5.189c0.761,0,1.408-0.098,1.941-0.293
		c0.532-0.196,0.93-0.49,1.192-0.881c0.261-0.392,0.391-0.871,0.391-1.437c0-0.631-0.24-1.088-0.718-1.371
		c-0.479-0.283-1.143-0.424-1.992-0.424h-4.567L111.754,29.587z"/>
	<path fill="#FFFFFF" d="M139.065,34.547c-1.87,0-3.501-0.338-4.895-1.011c-1.392-0.675-2.469-1.616-3.229-2.824
		c-0.762-1.206-1.142-2.615-1.142-4.226c0-1.959,0.466-3.703,1.402-5.237c0.937-1.534,2.219-2.747,3.851-3.639
		c1.634-0.891,3.503-1.337,5.611-1.337c1.896,0,3.53,0.331,4.913,0.995c1.381,0.664,2.452,1.594,3.215,2.79
		c0.76,1.197,1.142,2.61,1.142,4.243c0,1.957-0.469,3.709-1.402,5.253c-0.937,1.546-2.219,2.763-3.853,3.655
		C143.048,34.101,141.177,34.547,139.065,34.547z M139.427,29.62c0.827,0,1.554-0.212,2.185-0.638
		c0.632-0.423,1.127-1.006,1.485-1.744c0.36-0.741,0.539-1.612,0.539-2.612c0-0.979-0.29-1.794-0.866-2.447
		c-0.576-0.652-1.397-0.979-2.462-0.979c-0.827,0-1.557,0.208-2.186,0.621c-0.632,0.414-1.127,0.995-1.485,1.744
		c-0.361,0.752-0.54,1.629-0.54,2.629c0,1.045,0.295,1.876,0.881,2.496C137.566,29.31,138.382,29.62,139.427,29.62z"/>
	<path fill="#FFFFFF" d="M151.533,21.854l0.944-4.635h12.793l-0.913,4.635H151.533z M158.776,34.547c-1.37,0-2.544-0.267-3.524-0.8
		c-0.979-0.532-1.675-1.316-2.088-2.35s-0.479-2.267-0.196-3.703l3.004-15.076h6.199l-3.003,15.042
		c-0.108,0.676-0.032,1.192,0.229,1.551c0.262,0.359,0.706,0.539,1.338,0.539c0.326,0,0.642-0.043,0.947-0.13
		c0.304-0.088,0.609-0.218,0.913-0.393l0.782,4.275c-0.651,0.37-1.375,0.636-2.17,0.799
		C160.413,34.466,159.603,34.547,158.776,34.547z"/>
	<path fill="#FFFFFF" d="M172.58,34.252l14.65-22.841h6.363l5.516,22.841h-6.429l-4.078-19.774h2.544l-11.747,19.774H172.58z
		 M178.976,29.814l2.61-4.764h11.16l0.717,4.764H178.976z"/>
	<path fill="#FFFFFF" d="M200.969,34.252l4.568-22.841H212l-4.568,22.841H200.969z"/>
</g>
<title></title>
<path fill="#EAB308" d="M6.288,23.583c0,1.691-1.372,3.063-3.063,3.063l0,0c-1.692,0-3.063-1.372-3.063-3.063l0,0
	c0-1.691,1.371-3.063,3.063-3.063l0,0C4.917,20.52,6.288,21.892,6.288,23.583L6.288,23.583z"/>
<path fill="#EF4444" d="M16.942,23.583c0,1.691-1.371,3.063-3.063,3.063l0,0c-1.692,0-3.063-1.372-3.063-3.063l0,0
	c0-1.691,1.371-3.063,3.063-3.063l0,0C15.571,20.52,16.942,21.892,16.942,23.583L16.942,23.583z"/>
<path fill="#3B82F6" d="M27.596,23.583c0,1.691-1.371,3.063-3.063,3.063l0,0c-1.692,0-3.063-1.372-3.063-3.063l0,0
	c0-1.691,1.372-3.063,3.063-3.063l0,0C26.225,20.52,27.596,21.892,27.596,23.583L27.596,23.583z"/>
</svg>
