<?xml version="1.0" encoding="utf-8"?>
<!-- Generator: Adobe Illustrator 16.0.0, SVG Export Plug-In . SVG Version: 6.00 Build 0)  -->
<!DOCTYPE svg PUBLIC "-//W3C//DTD SVG 1.1//EN" "http://www.w3.org/Graphics/SVG/1.1/DTD/svg11.dtd">
<svg version="1.1" id="Layer_1" xmlns="http://www.w3.org/2000/svg" xmlns:xlink="http://www.w3.org/1999/xlink" x="0px" y="0px"
	 width="400px" height="400px" viewBox="-110 -177.5 400 400" enable-background="new -110 -177.5 400 400" xml:space="preserve">
<title></title>
<path fill="#FFFFFF" d="M90,83.087c32.186,0,58.271-26.085,58.271-58.271V-91.729C148.271-123.911,122.186-150,90-150
	c-32.182,0-58.272,26.089-58.272,58.271V24.815C31.728,57.002,57.818,83.087,90,83.087z M60.864-91.729
	c0-16.093,13.043-29.136,29.136-29.136s29.136,13.043,29.136,29.136V24.815c0,16.093-13.043,29.136-29.136,29.136
	S60.864,40.908,60.864,24.815V-91.729z"/>
<path fill="#FFFFFF" d="M191.976,24.815c0-8.047-6.525-14.568-14.568-14.568c-8.042,0-14.567,6.521-14.567,14.568
	c0,40.229-32.611,72.839-72.84,72.839s-72.84-32.61-72.84-72.839c0-8.047-6.521-14.568-14.568-14.568s-14.568,6.521-14.568,14.568
	c0.061,50.646,37.281,93.576,87.408,100.807v30.305h-7.284c-8.046,0-14.568,6.524-14.568,14.567s6.521,14.568,14.568,14.568h43.704
	c8.043,0,14.568-6.525,14.568-14.568s-6.525-14.567-14.568-14.567h-7.283v-30.305C154.69,118.392,191.915,75.461,191.976,24.815z"/>
</svg>
