<?xml version="1.0" encoding="utf-8"?>
<!-- Generator: Adobe Illustrator 16.0.0, SVG Export Plug-In . SVG Version: 6.00 Build 0)  -->
<!DOCTYPE svg PUBLIC "-//W3C//DTD SVG 1.1//EN" "http://www.w3.org/Graphics/SVG/1.1/DTD/svg11.dtd">
<svg version="1.1" id="Layer_1" xmlns="http://www.w3.org/2000/svg" xmlns:xlink="http://www.w3.org/1999/xlink" x="0px" y="0px"
	 width="800px" height="800px" viewBox="0 0 800 800" enable-background="new 0 0 800 800" xml:space="preserve">
<path fill="#FFFFFF" d="M100,400H53.125C53.142,208.426,208.457,53.139,400.03,53.155c105.934,0.01,206.057,48.425,271.845,131.454
	v-51.797h46.875v164.063H554.688V250h105.109C606.159,157.232,507.158,100.071,400,100C234.578,100,100,234.578,100,400z M700,400
	c0,165.422-134.578,300-300,300c-107.158-0.071-206.16-57.232-259.797-150h105.109v-46.875H81.25v164.063h46.875v-51.797
	c118.974,150.152,337.144,175.429,487.296,56.454C698.45,606.057,746.865,505.934,746.875,400H700z"/>
</svg>
